<?xml version="1.0" encoding="utf-8"?>
<!-- Generator: Adobe Illustrator 25.4.1, SVG Export Plug-In . SVG Version: 6.00 Build 0)  -->
<svg version="1.1" id="Layer_1" xmlns="http://www.w3.org/2000/svg" xmlns:xlink="http://www.w3.org/1999/xlink" x="0px" y="0px"
	 viewBox="0 0 24 24" style="enable-background:new 0 0 24 24;" xml:space="preserve">
<style type="text/css">
	.st0{fill:#FFFFFF;}
</style>
<g id="_x35_dT2qc_00000011714822228528711500000010056883771623180968_">
	<g>
		<path class="st0" d="M6.9,1C6.9,1,7,1,7.1,1c0.1,0.1,0.3,0.2,0.4,0.4c0.4,0.4,0.8,0.8,1.2,1.2C8.8,2.7,8.9,2.7,9,2.7
			c0.7-0.4,1.4-0.6,2.2-0.7c1.2-0.1,2.4,0,3.6,0.5c0.4,0.2,0.4,0.2,0.7-0.1c0.5-0.5,1-0.9,1.4-1.4c0.1,0,0.2,0,0.3,0
			c0.3,0.1,0.3,0.3,0.4,0.6c0,1,0.1,1.9,0.2,2.9c0.1,1.9,0.2,3.9,0.4,5.8c0.1,1.8,0.2,3.6,0.3,5.3c0,0.1,0.1,0.2,0.2,0.3
			c1.4,0.8,2.7,1.6,4.1,2.5c0.2,0.1,0.3,0.3,0.3,0.6c0,1.1,0,2.2,0,3.4c0,0.5-0.2,0.6-0.6,0.6c-6.9,0-13.8,0-20.7,0
			c-0.3,0-0.5-0.1-0.6-0.3c0-1.3,0-2.6,0-3.9c0.1-0.1,0.2-0.3,0.4-0.4c1.3-0.8,2.7-1.6,4-2.4c0.1-0.1,0.2-0.2,0.2-0.3
			c0-0.3,0-0.7,0.1-1c0.1-1.9,0.2-3.9,0.4-5.8C6.2,6.4,6.4,4,6.5,1.6C6.5,1.3,6.6,1.1,6.9,1z M9.1,11.2c0,0,0,0.1-0.1,0.1
			c-0.2,0.9-0.4,1.7-0.7,2.6c0,0.1,0,0.2,0.1,0.2c0.7,0.5,1.4,0.9,2.1,1.4c0.1,0.1,0.2,0.1,0.3,0.1c0.7,0,1.4,0,2.1,0
			c0.1,0,0.2,0,0.3-0.1c0.7-0.4,1.4-0.9,2-1.3c0.1-0.1,0.2-0.2,0.1-0.3c-0.2-0.8-0.4-1.7-0.6-2.5c0-0.1,0-0.1-0.1-0.2
			c-0.9,0.2-1.7,0.5-2.6,0.7c-0.2,0-0.4,0.1-0.6,0C10.9,11.7,10,11.4,9.1,11.2z M13.8,9.3c0.2,0,0.3,0,0.5,0c0.3,0,0.4-0.2,0.5-0.5
			c0-0.1,0.1-0.2,0.1-0.2c0.2-0.1,0.4-0.2,0.5-0.3c0.2-0.1,0.3-0.4,0.2-0.6c-0.1-0.2-0.4-0.3-0.6-0.2c-0.6,0.3-1.2,0.6-1.9,0.9
			c-0.2,0.1-0.3,0.3-0.2,0.5c0.1,0.2,0.2,0.3,0.4,0.3C13.5,9.3,13.7,9.3,13.8,9.3z M10.2,9.3c0.1,0,0.3,0,0.4,0
			c0.2,0,0.4-0.1,0.4-0.3c0.1-0.2,0-0.4-0.2-0.5C10.2,8.1,9.6,7.8,9,7.5c-0.3-0.1-0.5,0-0.6,0.2c-0.1,0.2,0,0.5,0.2,0.6
			c0.2,0.1,0.3,0.2,0.5,0.2c0.1,0,0.2,0.1,0.2,0.2c0,0.3,0.2,0.5,0.5,0.5C9.9,9.3,10,9.3,10.2,9.3z"/>
		<path class="st0" d="M12,13.8c-0.3,0-0.6,0-0.9,0c-0.3,0-0.4-0.2-0.5-0.4c0-0.2,0-0.4,0.2-0.5c0.1,0,0.2-0.1,0.3-0.1
			c0.5,0,1.1,0,1.6,0c0.3,0,0.5,0.1,0.5,0.4c0.1,0.2-0.1,0.5-0.4,0.5C12.7,13.8,12.3,13.8,12,13.8C12,13.8,12,13.8,12,13.8z"/>
	</g>
</g>
</svg>
