<?xml version="1.0" encoding="utf-8"?>
<!-- Generator: Adobe Illustrator 25.4.1, SVG Export Plug-In . SVG Version: 6.00 Build 0)  -->
<svg version="1.1" id="Layer_1" xmlns="http://www.w3.org/2000/svg" xmlns:xlink="http://www.w3.org/1999/xlink" x="0px" y="0px"
	 viewBox="0 0 24 24" style="enable-background:new 0 0 24 24;" xml:space="preserve">
<style type="text/css">
	.st0{fill:#FFFFFF;}
</style>
<g>
	<path class="st0" d="M20.4,1.1H3.6c-1.4,0-2.5,1.1-2.5,2.5v16.8c0,1.4,1.1,2.5,2.5,2.5h16.8c1.4,0,2.5-1.1,2.5-2.5V3.6
		C22.9,2.2,21.8,1.1,20.4,1.1z M5.4,5.6h13.2c0.4,0.5,0.7,1,0.8,1.5H4.5C4.7,6.7,5,6.1,5.4,5.6z M11.1,9.8v8.5c-0.5,0-1-0.1-1.5-0.3
		V9.8H3.9c0-0.6,0.1-1.1,0.3-1.6h5.4C10.5,8.2,11.2,8.9,11.1,9.8z M14.3,9.7L14.2,18c-0.6,0.1-1,0.3-1.6,0.3V9.8
		c0-0.8,0.7-1.6,1.6-1.6h5.5c0.2,0.5,0.2,1,0.4,1.5C20.1,9.7,14.3,9.7,14.3,9.7z"/>
</g>
</svg>
